<svg xmlns="http://www.w3.org/2000/svg" viewBox="0 0 1600 900" role="img" aria-labelledby="title desc"><title id="title">CardForge Library current visual intent</title><desc id="desc">Structured collection surface with Personal, Published, and Contributor-only Pipeline scopes; gallery and list organization; visual resource cards; selected-object inspector; voting; testing in Studio; comparison; and collapsed revision history.</desc><rect width="1600" height="900" fill="#0b0c0d"/><rect x="24" y="24" width="1552" height="852" rx="28" fill="#111214" stroke="#40382e" stroke-width="3"/><text x="72" y="86" fill="#d6aa57" font-size="34" font-family="Georgia,serif">CARDFORGE</text><g fill="#9e9b94" font-size="18" font-family="Arial,sans-serif"><text x="575" y="82">Home</text><text x="680" y="82" fill="#d6aa57">Library</text><text x="795" y="82">Studio</text><text x="905" y="82">Profile</text></g><text x="72" y="150" fill="#f3efe5" font-size="44" font-family="Georgia,serif">Library</text><text x="72" y="184" fill="#aaa59b" font-size="20" font-family="Arial,sans-serif">Your collection across Personal, Published, and Pipeline.</text><g font-family="Arial,sans-serif" font-size="19"><rect x="72" y="215" width="660" height="56" rx="12" fill="#151618" stroke="#4b4034"/><text x="175" y="250" fill="#aaa59b">Personal</text><text x="365" y="250" fill="#aaa59b">Published</text><rect x="505" y="219" width="220" height="48" rx="10" fill="#2a2318" stroke="#b08d45"/><text x="580" y="250" fill="#e7ba65">Pipeline</text></g><g transform="translate(72 310)"><g><rect width="250" height="220" rx="16" fill="#18191a" stroke="#b08d45" stroke-width="3"/><rect x="18" y="18" width="214" height="120" rx="10" fill="#241c13"/><text x="22" y="170" fill="#f0eadc" font-size="24" font-family="Georgia,serif">Dragon Frame</text><text x="22" y="198" fill="#c89c4c" font-size="16" font-family="Arial,sans-serif">Candidate r2 · 👍 12 · 👎 3</text></g><g transform="translate(280 0)"><rect width="250" height="220" rx="16" fill="#18191a" stroke="#3c3a35"/><text x="40" y="95" fill="#eee6d8" font-size="44" font-family="Georgia,serif">TYPE</text><text x="40" y="128" fill="#d5b880" font-size="24" font-family="Georgia,serif">IN MOTION</text><text x="22" y="170" fill="#f0eadc" font-size="24" font-family="Georgia,serif">Type in Motion</text><text x="22" y="198" fill="#72b978" font-size="16" font-family="Arial,sans-serif">Published r1 · 👍 18</text></g><g transform="translate(0 250)"><rect width="250" height="220" rx="16" fill="#18191a" stroke="#3c3a35"/><rect x="18" y="18" width="214" height="120" rx="10" fill="#242221"/><text x="22" y="170" fill="#f0eadc" font-size="24" font-family="Georgia,serif">Obsidian Cracks</text><text x="22" y="198" fill="#d3a54f" font-size="16" font-family="Arial,sans-serif">Needs my vote</text></g><g transform="translate(280 250)"><rect width="250" height="220" rx="16" fill="#18191a" stroke="#3c3a35"/><rect x="18" y="18" width="214" height="120" rx="10" fill="#2c211a"/><text x="22" y="170" fill="#f0eadc" font-size="24" font-family="Georgia,serif">Clash of Titans</text><text x="22" y="198" fill="#c89c4c" font-size="16" font-family="Arial,sans-serif">Candidate r3 · 👍 15</text></g></g><rect x="670" y="300" width="830" height="510" rx="20" fill="#151618" stroke="#4b4034"/><rect x="715" y="345" width="300" height="220" rx="14" fill="#241c13" stroke="#b08d45"/><text x="1055" y="375" fill="#f0eadc" font-size="36" font-family="Georgia,serif">Dragon Frame</text><text x="1055" y="415" fill="#aaa59b" font-size="18" font-family="Arial,sans-serif">Frame / Template · Candidate r2</text><text x="1055" y="462" fill="#77bd7c" font-size="22" font-family="Arial,sans-serif">👍 12</text><text x="1140" y="462" fill="#d96b61" font-size="22" font-family="Arial,sans-serif">👎 3</text><g font-family="Arial,sans-serif" font-size="19"><rect x="1055" y="500" width="370" height="54" rx="10" fill="#b08d45"/><text x="1165" y="534" fill="#111">Test in Studio</text><rect x="1055" y="570" width="370" height="54" rx="10" fill="#1b1b1a" stroke="#5b4a34"/><text x="1190" y="604" fill="#dfc58f">Vote</text><rect x="1055" y="640" width="370" height="54" rx="10" fill="#1b1b1a" stroke="#5b4a34"/><text x="1180" y="674" fill="#dfc58f">Compare</text><rect x="1055" y="710" width="370" height="54" rx="10" fill="#1b1b1a" stroke="#5b4a34"/><text x="1172" y="744" fill="#dfc58f">Revisions ▸</text></g></svg>