<svg xmlns="http://www.w3.org/2000/svg" viewBox="0 0 420 260" role="img" aria-label="Arcane landscape image asset">
  <defs>
    <linearGradient id="sky" x1="0" x2="0" y1="0" y2="260" gradientUnits="userSpaceOnUse">
      <stop stop-color="#1b1230"/>
      <stop offset=".55" stop-color="#54306d"/>
      <stop offset="1" stop-color="#120b16"/>
    </linearGradient>
    <radialGradient id="moon" cx="72%" cy="22%" r="24%">
      <stop stop-color="#fff4c8"/>
      <stop offset=".42" stop-color="#d8c4ff"/>
      <stop offset="1" stop-color="#7a52cc" stop-opacity="0"/>
    </radialGradient>
  </defs>
  <rect width="420" height="260" rx="18" fill="url(#sky)"/>
  <circle cx="302" cy="58" r="68" fill="url(#moon)"/>
  <path d="M0 183c45-38 78-42 116-15 43 30 79 22 121-15 41-36 90-30 183 31v76H0z" fill="#120f1f"/>
  <path d="M0 207c72-23 125-24 177-1 72 32 130 28 243-6v60H0z" fill="#211a33"/>
  <path d="M45 185l68-83 55 91M234 179l42-54 34 57" fill="none" stroke="#d5ad54" stroke-opacity=".55" stroke-width="4"/>
  <path d="M36 51c55 21 98 21 132 0M56 72c30 13 58 13 86 0" fill="none" stroke="#f5d27b" stroke-opacity=".22" stroke-width="3" stroke-linecap="round"/>
</svg>
