<svg xmlns="http://www.w3.org/2000/svg" viewBox="0 0 64 64" role="img" aria-label="Flame sigil icon">
  <defs>
    <linearGradient id="flame" x1="18" x2="46" y1="58" y2="8" gradientUnits="userSpaceOnUse">
      <stop stop-color="#7a1f0e"/>
      <stop offset="48%" stop-color="#d67425"/>
      <stop offset="100%" stop-color="#ffe09b"/>
    </linearGradient>
  </defs>
  <circle cx="32" cy="32" r="29" fill="#210b06" stroke="#d67425" stroke-width="3"/>
  <path d="M33 56c-10.4 0-17.6-7.2-17.6-17.1 0-7.1 3.8-12.8 8.2-17.5 1.7 5.3 4 8 6.8 9.6-1.6-8.2.8-16.1 8.5-23 1.1 9.5 9.7 13.8 9.7 27.2C48.6 47.6 41.9 56 33 56z" fill="url(#flame)" stroke="#ffe09b" stroke-width="2" stroke-linejoin="round"/>
  <path d="M32 50c-4.7 0-8-3.4-8-7.8 0-3.9 2.2-6.9 5.4-10.2.6 4 2.4 6 4.8 7.4-.1-3.9 1.1-7.6 4.3-11.3 1.1 5.7 4.7 8.2 4.7 14.1 0 5-4.3 7.8-11.2 7.8z" fill="#fff0c4" opacity=".72"/>
</svg>
